<svg height="512pt" viewBox="0 -2 512.00139 512" width="512pt" xmlns="http://www.w3.org/2000/svg"><path d="m256 49.484375 192.058594 137.039063v313.09375h-384.117188v-313.09375z" fill="#80c0e4"/><path d="m290.726562 220.277344h-69.453124c-42.78125 0-77.460938 34.679687-77.460938 77.460937v66.890625h224.375v-66.890625c0-42.78125-34.679688-77.460937-77.460938-77.460937zm0 0" fill="#424952"/><path d="m115.644531 315.035156c-4.492187 7.472656-4.808593 16.738282-9.785156 23.902344-4.515625 6.507812-11.800781 10.765625-14.265625 18.679688-4.039062 12.957031 5.84375 24.417968 17.082031 29.414062 10.796875 4.800781 29.996094 4.066406 36.25-8.199219.003907-.003906 33.054688-64.800781 33.054688-64.800781-17.082031-18.871094-47.648438-23.449219-62.335938 1.003906zm0 0" fill="#e1ba68"/><path d="m396.359375 315.035156c4.488281 7.472656 4.804687 16.738282 9.78125 23.902344 4.515625 6.507812 11.800781 10.765625 14.265625 18.679688 4.039062 12.957031-5.84375 24.417968-17.082031 29.414062-10.796875 4.800781-29.996094 4.066406-36.25-8.199219-.003907-.003906-33.054688-64.800781-33.054688-64.800781 17.082031-18.871094 47.652344-23.449219 62.339844 1.003906zm0 0" fill="#e1ba68"/><path d="m256 282.449219c-61.960938 0-112.1875 50.230469-112.1875 112.191406v104.976563h224.375v-104.976563c0-61.960937-50.226562-112.191406-112.1875-112.191406zm0 0" fill="#eee07d"/><path d="m283.6875 499.617188c-17.28125-21.207032.523438-66.503907 65.457031-66.503907 68.335938 0 46.867188 66.503907 26.707031 66.503907zm0 0" fill="#e1ba68"/><path d="m228.3125 499.617188c17.28125-21.207032-.523438-66.503907-65.457031-66.503907-68.335938 0-46.867188 66.503907-26.707031 66.503907zm0 0" fill="#e1ba68"/><path d="m63.941406 186.523438v87.308593c5.15625-1.429687 10.023438-3.8125 14.414063-7.089843l177.644531-132.625 177.644531 132.625c4.390625 3.277343 9.257813 5.660156 14.414063 7.089843v-87.308593l-192.058594-137.039063zm0 0" fill="#5ba0d3"/><path d="m499.074219 179.105469-219.335938-163.753907c-14.078125-10.511718-33.394531-10.511718-47.476562 0l-219.332031 163.753907c-6.0625 4.523437-7.308594 13.101562-2.78125 19.164062l31.089843 41.644531c4.527344 6.058594 13.105469 7.304688 19.167969 2.78125l195.59375-146.03125 195.597656 146.03125c6.058594 4.523438 14.640625 3.277344 19.164063-2.78125l31.089843-41.648437c4.527344-6.058594 3.28125-14.636719-2.777343-19.160156zm0 0" fill="#eee07d"/><path d="m205.371094 385.40625c4.144531 0 7.503906-3.359375 7.503906-7.503906v-9.160156c0-4.144532-3.359375-7.503907-7.503906-7.503907-4.144532 0-7.5 3.359375-7.5 7.503907v9.160156c0 4.144531 3.355468 7.503906 7.5 7.503906zm0 0"/><path d="m306.628906 385.40625c4.144532 0 7.503906-3.359375 7.503906-7.503906v-9.160156c0-4.144532-3.359374-7.503907-7.503906-7.503907-4.140625 0-7.5 3.359375-7.5 7.503907v9.160156c0 4.144531 3.359375 7.503906 7.5 7.503906zm0 0"/><path d="m242.253906 381.382812c4.179688 1.800782 8.835938 2.808594 13.746094 2.808594s9.570312-1.007812 13.746094-2.808594c4.386718-1.886718 3.050781-8.429687-1.726563-8.429687h-24.039062c-4.777344 0-6.113281 6.542969-1.726563 8.429687zm0 0"/><path d="m244.796875 407.554688c4.003906 0 7.855469-1.03125 11.203125-2.929688 3.347656 1.898438 7.203125 2.929688 11.203125 2.929688 6.53125 0 12.671875-2.742188 16.851563-7.519532 2.726562-3.121094 2.410156-7.859375-.710938-10.585937-3.121094-2.726563-7.859375-2.410157-10.585938.710937-1.328124 1.519532-3.351562 2.390625-5.554687 2.390625-2.199219 0-4.226563-.871093-5.554687-2.390625-2.933594-3.359375-8.359376-3.359375-11.296876 0-1.328124 1.519532-3.351562 2.390625-5.554687 2.390625-2.199219 0-4.226563-.871093-5.554687-2.390625-2.726563-3.121094-7.464844-3.4375-10.585938-.710937-3.117188 2.726562-3.4375 7.464843-.710938 10.585937 4.179688 4.777344 10.320313 7.519532 16.851563 7.519532zm0 0"/><path d="m448.058594 507.085938c4.144531 0 7.5-3.359376 7.5-7.5v-247.132813c1.375.277344 2.769531.433594 4.1875.433594 6.664062 0 13.039062-3.175781 17.027344-8.519531 0 0 31.078124-41.628907 31.09375-41.644532 6.914062-9.261718 4.941406-22.761718-4.304688-29.664062l-219.335938-163.75c-16.621093-12.410156-39.832031-12.410156-56.453124 0l-52.242188 39.003906c-3.320312 2.480469-4.003906 7.179688-1.523438 10.5 2.476563 3.320312 7.179688 4.003906 10.5 1.523438l52.246094-39.003907c11.332032-8.464843 27.164063-8.464843 38.496094 0 0 0 219.1875 163.640625 219.335938 163.75 2.703124 2.019531 3.273437 5.964844 1.257812 8.664063l-31.09375 41.648437c-2.019531 2.703125-5.960938 3.273438-8.664062 1.257813 0 0-42.71875-31.894532-42.746094-31.914063-3.246094-2.421875-8.074219-1.71875-10.5 1.523438-2.476563 3.320312-1.796875 8.019531 1.523437 10.5l36.191407 27.019531v248.304688h-43.761719c4.09375-7.179688 6.421875-15.90625 6.421875-24.253907 0-11.609375-4.457032-22.035156-12.554688-29.355469-4.140625-3.742187-9.140625-6.679687-14.96875-8.796874v-34.664063c4.070313 1.457031 8.664063 2.238281 13.601563 2.238281 13.5625 0 26.992187-6.367187 34.5625-17.84375 9.140625-13.851562 4.121093-28.203125-6.554688-39.121094-8.1875-8.375-8.738281-19.535156-14.511719-29.148437-6.457031-10.75-15.992187-17.550781-27.351562-19.6875-3.214844-43.9375-39.964844-78.710937-84.710938-78.710937h-69.453124c-44.742188 0-81.496094 34.773437-84.710938 78.710937-11.359375 2.136719-20.894531 8.941406-27.351562 19.6875-2.589844 4.316406-3.996094 8.945313-5.238282 13.03125-3.789062 12.484375-15.769531 19.074219-19.542968 31.179687-7.226563 23.1875 17.351562 41.902344 38.28125 41.902344 4.9375 0 9.527343-.777344 13.597656-2.234375v34.660157c-5.828125 2.121093-10.828125 5.054687-14.964844 8.796874-8.097656 7.320313-12.558594 17.746094-12.558594 29.355469 0 8.351563 2.328125 17.074219 6.425782 24.253907h-43.765626v-248.304688l184.554688-137.789062s125.148438 93.433593 125.253906 93.511718c3.246094 2.425782 8.078125 1.726563 10.5-1.523437 2.476563-3.316407 1.796875-8.019531-1.523437-10.5l-129.742188-96.859375c-2.660156-1.988282-6.3125-1.988282-8.976562 0l-195.597657 146.027344c-2.734374 2.042968-6.621093 1.480468-8.664062-1.257813 0 0-31.066406-41.613281-31.089844-41.644531-2.023437-2.710938-1.449218-6.644532 1.257813-8.664063l142.789062-106.605469c3.320313-2.480468 4.003907-7.179687 1.523438-10.5-2.476563-3.320312-7.179688-4.003906-10.5-1.523437 0 0-142.734375 106.5625-142.789063 106.605469-9.253906 6.910156-11.214844 20.410156-4.304687 29.664062 0 0 31.078125 41.628906 31.089843 41.644532 4.863282 6.515624 13.25 9.703124 21.214844 8.085937v247.132813c0 4.140624 3.359375 7.5 7.5 7.5zm-59.847656-39.257813c0 13.273437-8.183594 24.253906-12.359376 24.253906h-88.214843c-.015625-.03125-.039063-.0625-.054688-.097656-4.097656-7.21875-2.734375-15.734375.335938-23.027344.003906-.007812.007812-.019531.011719-.027343 10.25-20.511719 35.03125-27.386719 56.238281-28.25 18.613281-.757813 44.042969 3.476562 44.042969 27.148437zm1.714843-148.964844c4.566407 7.601563 4.894531 16.890625 10.050781 24.320313 3.867188 5.566406 11.199219 9.992187 13.269532 16.632812 4.179687 13.414063-13.0625 22.429688-23.957032 22.429688-2.679687 0-11.351562-.445313-14.996093-5.941406-.207031-1.347657-.769531-4.398438-.808594-4.59375-2.933594-15.089844-8.851563-29.484376-17.207031-42.375-3.453125-5.3125-7.316406-10.371094-11.589844-15.089844-.171875-.261719 5.726562-3.851563 6.445312-4.226563 13.886719-7.289062 30.351563-5.214843 38.792969 8.84375zm-168.652343-91.117187h69.453124c36.414063 0 66.417969 27.964844 69.667969 63.542968-7.671875 1.210938-15.003906 4.253907-21.4375 8.589844-1.757812 1.1875-3.460937 2.464844-5.078125 3.839844-17.820312-15.304688-39.488281-24.898438-62.625-27.835938-10.097656-1.320312-20.410156-1.296874-30.503906 0-23.140625 2.9375-44.804688 12.53125-62.625 27.835938-6.679688-5.667969-14.722656-9.855469-23.28125-11.804688-.242188-.054687-3.238281-.617187-3.238281-.625 3.253906-35.582031 33.257812-63.542968 69.667969-63.542968zm-98.5625 154.5c-10.835938 0-28.132813-9.03125-23.953126-22.429688 2.074219-6.660156 9.386719-11.046875 13.265626-16.632812 5.144531-7.40625 5.492187-16.734375 10.050781-24.320313 6.394531-10.648437 15.425781-13.039062 22.023437-13.128906 7.5-.101563 14.820313 2.609375 20.949219 6.824219.152344.105468 2.269531 1.679687 2.261719 1.691406-14.570313 16.101562-24.652344 36.160156-28.796875 57.480469-.226563 1.15625-.191407 3.648437-.804688 4.574219-3.644531 5.496093-12.3125 5.941406-14.996093 5.941406zm28.605468 43.992187v-31.632812c0-51.898438 39.855469-97.226563 91.269532-103.832031 8.867187-1.136719 17.972656-1.214844 26.835937.003906 51.34375 7.046875 91.265625 51.742187 91.265625 103.828125v31.632812c-3.824219-.46875-7.691406-.660156-11.542969-.660156-28.289062 0-61.621093 9.242187-74.769531 36.921875-4.324219 9.097656-5.753906 19.824219-2.90625 29.582031h-30.933594c.402344-.011719.902344-3.894531.976563-4.347656 1.421875-8.519531-.199219-17.480469-3.886719-25.242187-13.117188-27.621094-46.554688-36.914063-74.769531-36.914063-3.851563 0-7.714844.199219-11.539063.660156zm-27.527344 41.589844c0-5.171875 1.324219-12.535156 7.617188-18.226563 8.398438-7.59375 20.582031-9.019531 31.449219-9.019531 17.753906 0 33.03125 3.734375 44.28125 10.484375 12.792969 7.679688 24.824219 23.941406 18.0625 39.328125-.25.574219-.527344 1.136719-.832031 1.6875h-88.21875c-4.175782 0-12.359376-10.980469-12.359376-24.253906zm0 0"/></svg>