<svg id="Capa_1" enable-background="new 0 0 512 512" height="512" viewBox="0 0 512 512" width="512" xmlns="http://www.w3.org/2000/svg"><g><g><path d="m405.535 408.986c-11.374 0-24.531-1.21-39.753-3.992-47.575-8.694-104.205-31.051-159.458-62.952s-102.93-69.765-134.246-106.62c-44.854-52.784-41.77-85.512-31.284-103.673 10.485-18.161 37.284-37.197 105.425-24.744 47.575 8.694 104.205 31.051 159.458 62.952s102.93 69.765 134.246 106.62c44.853 52.784 41.77 85.512 31.284 103.673-8.143 14.104-26.128 28.736-65.672 28.736zm-298.963-272.826c-21.632 0-33.264 5.539-37.085 12.157-5.466 9.468-1.024 31.686 27.838 65.651 28.922 34.035 73.515 69.329 125.564 99.38 52.05 30.051 104.912 51.023 148.848 59.052 43.845 8.014 65.308.752 70.774-8.717 5.466-9.468 1.024-31.686-27.838-65.651-28.922-34.035-73.515-69.329-125.564-99.38-52.05-30.051-104.912-51.023-148.848-59.052-13.198-2.412-24.372-3.44-33.689-3.44z" fill="#ffa001"/></g><g><path d="m256 504.5c-20.97 0-50.856-13.694-74.141-78.929-16.258-45.548-25.212-105.77-25.212-169.571s8.954-124.023 25.212-169.571c23.285-65.235 53.171-78.929 74.141-78.929s50.856 13.694 74.141 78.929c16.258 45.548 25.212 105.77 25.212 169.571s-8.954 124.022-25.212 169.571c-23.285 65.235-53.171 78.929-74.141 78.929zm0-463.867c-10.932 0-27.952 14.956-42.935 56.934-15.015 42.064-23.284 98.33-23.284 158.432s8.269 116.368 23.284 158.432c14.983 41.978 32.003 56.934 42.935 56.934s27.952-14.956 42.935-56.934c15.015-42.064 23.284-98.33 23.284-158.432s-8.269-116.368-23.284-158.432c-14.983-41.977-32.003-56.934-42.935-56.934z" fill="#95d327"/></g><g><path d="m106.465 408.986c-39.55 0-57.528-14.631-65.672-28.736-10.486-18.161-13.57-50.889 31.284-103.673 31.316-36.854 78.993-74.719 134.246-106.62s111.884-54.257 159.458-62.952c68.141-12.451 94.94 6.583 105.425 24.744s13.57 50.889-31.284 103.673c-31.316 36.854-78.993 74.719-134.246 106.62s-111.884 54.257-159.458 62.952c-15.217 2.781-28.38 3.992-39.753 3.992zm298.963-272.826c-9.318 0-20.488 1.028-33.69 3.44-43.936 8.029-96.798 29.001-148.848 59.052s-96.643 65.345-125.564 99.38c-28.862 33.965-33.304 56.183-27.838 65.651 5.466 9.467 26.929 16.73 70.774 8.717 43.936-8.029 96.798-29.001 148.848-59.052s96.643-65.345 125.564-99.38c28.862-33.964 33.304-56.183 27.838-65.651-3.82-6.617-15.456-12.157-37.084-12.157z" fill="#5dcef5"/></g><g fill="#37494a"><circle cx="305.7" cy="73.767" r="24.85"/><circle cx="73.767" cy="305.7" r="24.85"/><circle cx="438.233" cy="305.7" r="24.85"/></g><g fill="#ffa001"><path d="m396.47 233.533c-7.582 7.511-15.84 15.023-24.69 22.467 8.85 7.445 17.108 14.956 24.69 22.467 8.685-7.439 16.841-14.946 24.381-22.467-7.54-7.521-15.696-15.029-24.381-22.467z"/><path d="m91.148 256c7.54 7.521 15.697 15.029 24.381 22.467 7.582-7.511 15.84-15.023 24.69-22.467-8.85-7.445-17.108-14.956-24.69-22.467-8.684 7.438-16.84 14.946-24.381 22.467z"/></g><g><circle cx="256" cy="256" fill="#fbe100" r="132.533"/><g fill="#37494a"><circle cx="256" cy="256" r="16.567"/><path d="m256 206.3c6.561 0 12.821 1.278 18.553 3.591 3.734 1.507 8.004.112 10.017-3.375l16.961-29.378c2.349-4.069.703-9.276-3.554-11.263-12.752-5.951-26.976-9.275-41.977-9.275s-29.225 3.325-41.977 9.275c-4.257 1.987-5.903 7.194-3.554 11.263l16.961 29.378c2.013 3.487 6.283 4.882 10.017 3.375 5.732-2.313 11.992-3.591 18.553-3.591z"/><path d="m305.24 262.785c-1.789 13.095-8.684 24.561-18.608 32.339-3.163 2.479-4.078 6.869-2.069 10.349l16.961 29.377c2.353 4.076 7.697 5.246 11.548 2.541 23.353-16.405 39.326-42.604 41.948-72.63.41-4.7-3.252-8.76-7.97-8.76h-33.902c-3.95-.001-7.373 2.871-7.908 6.784z"/><path d="m225.368 295.123c-9.925-7.778-16.819-19.244-18.608-32.339-.535-3.913-3.958-6.785-7.907-6.785h-33.902c-4.718 0-8.38 4.06-7.97 8.76 2.622 30.026 18.595 56.225 41.948 72.63 3.851 2.705 9.195 1.535 11.548-2.541l16.961-29.377c2.008-3.479 1.093-7.869-2.07-10.348z"/></g><path d="m256 123.467c-3.875 0-7.709.176-11.5.502 67.81 5.83 121.033 62.711 121.033 132.031s-53.223 126.201-121.033 132.031c3.791.326 7.625.502 11.5.502 73.196 0 132.533-59.337 132.533-132.533s-59.337-132.533-132.533-132.533z" fill="#fdbf01"/></g></g><g><path d="m256 231.933c-13.27 0-24.066 10.796-24.066 24.067s10.796 24.067 24.066 24.067c13.271 0 24.066-10.796 24.066-24.067 0-13.27-10.795-24.067-24.066-24.067zm0 33.134c-4.999 0-9.066-4.067-9.066-9.067 0-4.999 4.067-9.067 9.066-9.067s9.066 4.067 9.066 9.067-4.067 9.067-9.066 9.067z"/><path d="m224.658 216.714c.995 1.724 2.635 2.981 4.558 3.495 1.922.516 3.971.244 5.693-.753 6.395-3.7 13.688-5.656 21.091-5.656s14.696 1.956 21.091 5.656c1.151.667 2.448 1.008 3.756 1.008.648 0 1.3-.084 1.938-.255 1.923-.514 3.563-1.771 4.558-3.495l24.86-43.059c2.069-3.585.844-8.169-2.739-10.242-16.185-9.363-34.672-14.313-53.464-14.313s-37.279 4.95-53.463 14.314c-3.583 2.073-4.809 6.657-2.739 10.242zm31.342-52.614c13.639 0 27.087 3.03 39.31 8.813l-17.454 30.23c-6.904-2.856-14.339-4.344-21.856-4.344-7.518 0-14.952 1.488-21.856 4.344l-17.454-30.23c12.223-5.783 25.671-8.813 39.31-8.813z"/><path d="m355.4 248.5h-49.7c-4.143 0-7.5 3.358-7.5 7.5 0 15.007-8.089 29.01-21.109 36.544-3.583 2.073-4.809 6.657-2.739 10.242l24.86 43.059c.995 1.724 2.635 2.981 4.558 3.496.638.17 1.288.254 1.938.254 1.308 0 2.604-.342 3.756-1.008 32.961-19.072 53.436-54.549 53.436-92.587 0-4.142-3.357-7.5-7.5-7.5zm-47.106 83.076-17.453-30.23c11.971-9.224 19.864-22.889 21.86-37.846h34.89c-2.257 27.326-16.745 52.423-39.297 68.076z"/><path d="m234.909 292.544c-13.02-7.534-21.109-21.537-21.109-36.544 0-4.142-3.357-7.5-7.5-7.5h-49.7c-4.143 0-7.5 3.358-7.5 7.5 0 38.038 20.476 73.515 53.438 92.586 1.151.667 2.448 1.008 3.756 1.008.648 0 1.3-.084 1.938-.254 1.923-.515 3.563-1.772 4.558-3.496l24.86-43.059c2.068-3.583.842-8.167-2.741-10.241zm-31.203 39.032c-22.552-15.653-37.04-40.75-39.297-68.076h34.89c1.996 14.957 9.89 28.622 21.86 37.846z"/><path d="m470.583 305.7c0-14.298-9.328-26.452-22.215-30.715-.894-1.083-1.802-2.171-2.729-3.263-4.441-5.226-9.207-10.471-14.269-15.72 5.075-5.263 9.857-10.532 14.268-15.723 47.684-56.113 43.756-92.029 32.064-112.278-11.691-20.248-40.83-41.607-113.27-28.372-6.746 1.233-13.671 2.739-20.746 4.497-2.021-7.029-4.193-13.804-6.482-20.217-.142-.398-.286-.781-.428-1.175.823-2.849 1.274-5.855 1.274-8.966 0-13.073-7.799-24.351-18.984-29.448-21.786-36.544-46.242-44.32-63.066-44.32-23.382 0-56.45 14.557-81.204 83.908-2.305 6.459-4.464 13.209-6.479 20.216-7.095-1.764-14.049-3.271-20.75-4.495-72.433-13.237-101.58 8.122-113.269 28.371-11.692 20.249-15.619 56.165 32.064 112.278 4.441 5.227 9.208 10.471 14.268 15.72-5.075 5.263-9.857 10.532-14.268 15.723-.92 1.082-1.829 2.173-2.73 3.264-12.887 4.263-22.215 16.417-22.215 30.715 0 .335.015.666.025.998-21.094 37.416-15.605 62.649-7.144 77.302 8.557 14.821 28.023 32.487 72.168 32.486 12.338-.001 26.166-1.385 41.102-4.114 6.745-1.233 13.669-2.738 20.746-4.497 2.02 7.026 4.192 13.801 6.482 20.217 1.216 3.405 2.48 6.756 3.757 9.96 1.171 2.937 3.989 4.724 6.969 4.724.925 0 1.865-.172 2.776-.535 3.847-1.534 5.723-5.897 4.188-9.745-1.21-3.035-2.409-6.213-3.563-9.447-2.158-6.046-4.208-12.437-6.12-19.071 5.683-1.645 11.457-3.451 17.309-5.406 1.84 6.397 3.811 12.557 5.89 18.383 14.043 39.345 32.268 61.912 49.998 61.912s35.954-22.566 49.999-61.913c3.778-10.582 7.172-22.181 10.116-34.496 7.484-3.572 14.602-7.787 21.284-12.577-3.826 19.386-8.624 37.205-14.322 53.169-17.268 48.378-40.463 73.95-67.077 73.95-18.678 0-36.238-13.137-50.781-37.992-2.093-3.576-6.688-4.777-10.262-2.685-3.575 2.092-4.777 6.686-2.686 10.261 21.965 37.537 46.78 45.416 63.729 45.416 23.382 0 56.45-14.557 81.204-83.908 2.305-6.459 4.463-13.209 6.479-20.216 7.092 1.763 14.046 3.27 20.75 4.495 14.94 2.73 28.769 4.114 41.103 4.114 44.146-.001 63.611-17.667 72.167-32.485 8.46-14.652 13.951-39.886-7.144-77.304.009-.331.024-.662.024-.996zm-32.35 17.35c-9.567 0-17.351-7.783-17.351-17.35s7.783-17.35 17.351-17.35c9.566 0 17.35 7.783 17.35 17.35s-7.783 17.35-17.35 17.35zm-2.215 36.883c-2.996 5.19-20.003 12.934-62.932 5.088-6.041-1.104-12.336-2.479-18.785-4.099.362-2.097.712-4.21 1.052-6.338 18.513-18.655 31.818-42.477 37.547-69.085 4.82 4.843 9.333 9.667 13.508 14.437-.338 1.872-.524 3.796-.524 5.763 0 15.804 11.396 28.99 26.401 31.792 5.401 11.802 5.487 19.403 3.733 22.442zm-180.015 21.1c-58.143 0-107.144-39.894-121.069-93.746-.068-.437-.173-.868-.317-1.289-2.377-9.614-3.647-19.66-3.647-29.998 0-4.194.211-8.339.617-12.428.123-.548.183-1.105.182-1.663 7.024-62.334 60.055-110.943 124.235-110.943 11.462 0 22.771 1.597 33.63 4.638.304.107.615.195.931.263 22.087 6.37 42.266 18.761 57.992 36.064 2.785 3.066 7.529 3.292 10.594.506s3.292-7.529.506-10.595c-3.078-3.387-6.315-6.599-9.683-9.644 7.978-2.118 15.715-3.869 23.114-5.221 12.05-2.202 22.931-3.319 32.341-3.319 18.996 0 28.351 4.529 30.59 8.407 2.997 5.19 1.198 23.793-27.058 57.044-3.979 4.682-8.316 9.447-12.943 14.221-1.608-1.339-3.235-2.676-4.879-4.012-2.828-10.454-6.845-20.572-12.017-30.091-1.977-3.639-6.529-4.987-10.171-3.009-3.64 1.978-4.986 6.531-3.009 10.171 9.875 18.172 15.095 38.785 15.095 59.609 0 4.214-.213 8.379-.622 12.487-.112.513-.168 1.034-.171 1.556-7.003 62.358-60.045 110.992-124.241 110.992zm-176.287-43.541c15.005-2.802 26.401-15.987 26.401-31.792 0-1.968-.186-3.893-.525-5.765 3.261-3.726 6.734-7.493 10.391-11.266 1.604 1.336 3.228 2.67 4.868 4.003 7.118 26.204 21.663 49.38 41.236 67.109-7.997 2.125-15.758 3.885-23.175 5.24-42.924 7.844-59.934.101-62.931-5.088-1.753-3.039-1.667-10.64 3.735-22.441zm24.868-58.608c-2.009 2.085-3.968 4.168-5.868 6.245-3.921-4.747-9.169-8.357-15.168-10.264 2.474-2.747 5.042-5.507 7.702-8.27 4.267 4.101 8.715 8.199 13.334 12.289zm-1.544-69.773c-28.256-33.251-30.055-51.854-27.058-57.044 2.239-3.878 11.594-8.407 30.59-8.407 9.413 0 20.294 1.117 32.341 3.319 6.045 1.104 12.34 2.479 18.787 4.098-.362 2.099-.713 4.214-1.053 6.345-18.51 18.655-31.814 42.476-37.541 69.082-5.819-5.846-11.199-11.666-16.066-17.393zm190.039-105.559c1.622 4.75 3.173 9.717 4.636 14.856-1.973.726-3.954 1.471-5.942 2.23-11.581-3.069-23.599-4.671-35.77-4.671-14.961 0-29.377 2.368-42.905 6.732 2.154-7.963 4.504-15.534 7.03-22.611 14.669-41.096 29.879-51.955 35.872-51.955 3.751 0 10.765 4.315 18.763 16.176-.917 2.993-1.414 6.168-1.414 9.457.001 13.363 8.145 24.858 19.73 29.786zm122.46 157.74c.001.001.002.003.004.004l.005.005c4.54 4.529 8.85 9.053 12.909 13.563-6.003 1.908-11.253 5.519-15.176 10.268-5.448-5.954-11.366-11.959-17.692-17.951.293-3.689.447-7.417.447-11.181 0-4.518-.225-9.025-.66-13.508 7.159 6.261 13.883 12.536 20.163 18.8zm-48.41-146.908c50.532-9.232 84.276-1.931 97.583 21.116 13.308 23.048 2.76 55.921-30.505 95.065-4.157 4.893-8.667 9.864-13.457 14.838-4.266-4.1-8.715-8.198-13.334-12.288 4.618-4.791 8.968-9.577 12.974-14.292 27.053-31.835 37.484-58.9 28.618-74.257-5.922-10.258-21.399-15.907-43.58-15.907-10.313 0-22.101 1.199-35.037 3.563-11.059 2.02-22.803 4.88-34.947 8.491-6.807-4.684-14.006-8.746-21.501-12.154 18.694-6.375 36.518-11.128 53.186-14.175zm-55.24-.956c-.737-2.563-1.495-5.083-2.271-7.557 6.314-.766 12.075-3.351 16.733-7.225.979 3.062 1.929 6.191 2.847 9.378-5.684 1.645-11.457 3.449-17.309 5.404zm-6.189-22.311c-1.311 0-2.583-.159-3.811-.435-.587-.252-1.204-.433-1.841-.529-6.797-2.352-11.698-8.8-11.698-16.386 0-9.567 7.783-17.35 17.351-17.35 9.566 0 17.35 7.783 17.35 17.35s-7.784 17.35-17.351 17.35zm-49.7-76.117c15.703 0 30.599 9.284 43.593 27.002-6.276 1.205-11.909 4.227-16.335 8.498-8.859-11.272-18.331-17.367-27.258-17.367-17.73 0-35.955 22.566-49.999 61.913-3.778 10.583-7.172 22.179-10.117 34.499-7.484 3.572-14.602 7.788-21.284 12.578 3.826-19.386 8.624-37.207 14.323-53.174 17.268-48.377 40.463-73.949 67.077-73.949zm-208.712 120.5c13.307-23.047 47.05-30.349 97.582-21.116 6.315 1.154 12.876 2.576 19.578 4.237-1.418 5.746-2.743 11.649-3.975 17.695-6.455-1.604-12.778-2.982-18.863-4.094-12.935-2.364-24.723-3.563-35.038-3.563-22.182 0-37.659 5.649-43.58 15.907-8.866 15.356 1.565 42.422 28.618 74.257 7.275 8.562 15.615 17.295 24.806 26-.293 3.688-.446 7.414-.446 11.176 0 4.556.226 9.06.654 13.506-7.157-6.26-13.882-12.533-20.162-18.798-.001-.001-.003-.003-.004-.004-.002-.002-.004-.003-.006-.005-6.748-6.732-12.982-13.452-18.659-20.134-33.265-39.143-43.813-72.016-30.505-95.064zm26.479 152.85c9.567 0 17.351 7.783 17.351 17.35 0 9.566-7.783 17.35-17.351 17.35-9.566 0-17.35-7.783-17.35-17.35s7.783-17.35 17.35-17.35zm71.103 109.266c-14.048 2.567-26.969 3.869-38.405 3.87-29.275 0-49.738-8.639-59.177-24.986-7.762-13.443-7.277-30.73 1.278-50.549 3.917 4.865 9.207 8.575 15.28 10.536-6.081 15.811-4.035 25.436-.853 30.946 6.051 10.479 21.318 15.902 43.469 15.902 10.305 0 22.101-1.174 35.149-3.558 11.072-2.023 22.833-4.888 34.985-8.503 6.739 4.656 13.9 8.741 21.42 12.176-8.941 3.048-17.681 5.723-26.191 8.019-.062.015-.123.023-.185.039-.075.02-.145.048-.218.07-9.13 2.454-17.996 4.474-26.552 6.038zm147.002 14.296c-14.669 41.097-29.879 51.955-35.872 51.955s-21.203-10.858-35.872-51.955c-2.064-5.784-4.022-11.924-5.844-18.32 1.959-.721 3.924-1.456 5.898-2.21 11.439 3.029 23.443 4.651 35.821 4.651 14.958 0 29.371-2.367 42.896-6.729-2.153 7.96-4.502 15.533-7.027 22.608zm172.84-35.412c-9.437 16.345-29.899 24.985-59.177 24.986-11.433 0-24.354-1.302-38.405-3.87-6.318-1.154-12.879-2.577-19.579-4.237 1.418-5.746 2.743-11.649 3.976-17.696 6.458 1.604 12.781 2.983 18.863 4.094 13.052 2.385 24.846 3.559 35.151 3.559 22.149 0 37.417-5.424 43.467-15.903 3.181-5.51 5.228-15.134-.854-30.946 6.073-1.962 11.363-5.672 15.28-10.536 8.555 19.819 9.04 37.106 1.278 50.549z"/></g></svg>