<?xml version="1.0" encoding="iso-8859-1"?>
<!-- Generator: Adobe Illustrator 19.0.0, SVG Export Plug-In . SVG Version: 6.00 Build 0)  -->
<svg version="1.1" id="Capa_1" xmlns="http://www.w3.org/2000/svg" xmlns:xlink="http://www.w3.org/1999/xlink" x="0px" y="0px"
	 viewBox="0 0 512 512" style="enable-background:new 0 0 512 512;" xml:space="preserve">
<path style="fill:#FF1E7E;" d="M512,512H241V256h271V512z"/>
<g>
	<path style="fill:#FF8FB8;" d="M379.7,418.7c0,4.8-1.001,8.925-3,12.375c-2.002,3.45-4.751,6.276-8.25,8.475
		c-3.502,2.201-7.575,3.825-12.225,4.875S346.648,446,341.45,446H289.1V339.5h61.8c3.698,0,7.05,0.802,10.05,2.4
		c3,1.601,5.55,3.675,7.65,6.225c2.1,2.55,3.724,5.452,4.875,8.7c1.148,3.251,1.725,6.576,1.725,9.975
		c0,5.002-1.275,9.776-3.825,14.325c-2.55,4.552-6.375,7.976-11.475,10.275c6.099,1.8,10.924,4.927,14.475,9.375
		C377.924,405.226,379.7,411.2,379.7,418.7z M318.351,364.4v16.35H338.3c2,0,3.825-0.548,5.476-1.65
		c1.649-1.099,2.475-3.3,2.475-6.6c0-2.899-0.7-4.974-2.1-6.225c-1.401-1.249-3.052-1.875-4.95-1.875H318.351z M350,412.7
		c0-2.6-0.7-4.774-2.1-6.525c-1.401-1.748-3.202-2.625-5.4-2.625h-24.149v17.85h23.1c2.4,0,4.425-0.75,6.075-2.25
		C349.175,417.65,350,415.501,350,412.7z"/>
	<path style="fill:#FF8FB8;" d="M428.601,447.5c-6.899,0-13.05-1.076-18.45-3.225c-5.399-2.149-9.926-5.074-13.574-8.775
		c-3.652-3.698-6.427-7.95-8.325-12.75c-1.901-4.8-2.851-9.849-2.851-15.15c0-5.7,0.924-11.1,2.775-16.2
		c1.85-5.1,4.599-9.548,8.25-13.35c3.649-3.799,8.149-6.825,13.5-9.075c5.349-2.25,11.573-3.375,18.675-3.375
		c6.999,0,13.2,1.125,18.601,3.375c5.399,2.25,9.923,5.25,13.574,9c3.649,3.75,6.398,8.1,8.25,13.05
		c1.85,4.95,2.775,10.125,2.775,15.525c0,1.5-0.075,3.026-0.225,4.575c-0.15,1.552-0.326,2.925-0.525,4.125h-55.35
		c0.3,4.2,1.849,7.226,4.649,9.075c2.799,1.852,5.851,2.775,9.15,2.775c3.099,0,6.023-0.699,8.774-2.1
		c2.75-1.399,4.575-3.349,5.476-5.85l24.149,6.9c-3.201,6.3-8.125,11.452-14.774,15.45C446.475,445.501,438.299,447.5,428.601,447.5
		z M441.201,398.15c-0.502-3.799-1.901-6.799-4.2-9c-2.302-2.198-5.25-3.3-8.851-3.3c-3.6,0-6.551,1.102-8.85,3.3
		c-2.302,2.201-3.701,5.201-4.2,9H441.201z"/>
	<path style="fill:#FF8FB8;" d="M440.8,349.16v-9.92h-20.561v-13.6l25.36-32.32H456v32.32h7.04v13.6H456v9.92H440.8z
		 M435.199,325.64h7.36v-9.6L435.199,325.64z"/>
</g>
<path style="fill:#14B7BF;" d="M271,512H0V241h271V512z"/>
<g>
	<path style="fill:#00DFC1;" d="M54.601,446V339.5h29.25v81h48.3V446H54.601z"/>
	<path style="fill:#00DFC1;" d="M140.85,360.5v-24h28.5v24H140.85z M140.85,446v-78.9h28.5V446H140.85z"/>
	<path style="fill:#00DFC1;" d="M210.48,320.04c1.653,0.268,3.16,0.828,4.52,1.68c1.359,0.853,2.532,1.92,3.52,3.2
		c0.986,1.28,1.761,2.734,2.32,4.36c0.56,1.628,0.84,3.348,0.84,5.16c0,2.507-0.533,4.772-1.6,6.8
		c-1.067,2.026-2.574,3.746-4.52,5.16c-1.947,1.413-4.333,2.493-7.16,3.24c-2.827,0.746-6,1.12-9.52,1.12
		c-4.107,0-7.733-0.52-10.88-1.56c-3.148-1.04-6-2.654-8.561-4.84l7.761-11.04c1.546,1.228,3.186,2.12,4.92,2.68
		c1.732,0.56,3.72,0.84,5.96,0.84c2.72,0,4.706-0.412,5.96-1.24c1.252-0.826,1.88-2.146,1.88-3.96c0-2.026-0.8-3.48-2.4-4.36
		c-1.6-0.88-4.214-1.32-7.84-1.32h-2.48V315.4h2.8c2.56,0,4.612-0.492,6.16-1.48c1.546-0.986,2.319-2.332,2.319-4.04
		c0-1.28-0.453-2.28-1.359-3c-0.908-0.72-2.188-1.08-3.84-1.08c-1.868,0-3.614,0.468-5.24,1.4c-1.628,0.934-3.054,2.333-4.28,4.2
		l-9.6-11.28c0.96-1.066,2.172-2.04,3.64-2.92c1.466-0.88,3.12-1.64,4.96-2.28c1.84-0.64,3.8-1.132,5.88-1.48
		c2.08-0.346,4.213-0.52,6.4-0.52c2.933,0,5.626,0.334,8.08,1c2.452,0.668,4.532,1.614,6.239,2.84c1.707,1.228,3.04,2.708,4,4.44
		c0.961,1.733,1.44,3.668,1.44,5.8c0,1.6-0.268,3.12-0.8,4.56c-0.534,1.44-1.254,2.747-2.16,3.92c-0.907,1.174-1.987,2.16-3.24,2.96
		C213.346,319.24,211.973,319.774,210.48,320.04z"/>
</g>
<path style="fill:#FCBF29;" d="M271,256H0V0h271V256z"/>
<g>
	<path style="fill:#FE9923;" d="M147.1,98.5V205h-29.25v-41.7h-35.7V205H52.9V98.5h29.25v39.3h35.699V98.5H147.1z"/>
	<path style="fill:#FE9923;" d="M222.239,84.4V98h-37.04V84.4h11.36V68.48c-0.48,0.64-1.228,1.268-2.24,1.88
		c-1.014,0.614-2.147,1.188-3.4,1.72c-1.253,0.534-2.52,0.96-3.8,1.28c-1.279,0.32-2.427,0.48-3.439,0.48V59.92
		c0.746,0,1.786-0.28,3.12-0.84c1.332-0.56,2.666-1.227,4-2c1.332-0.772,2.546-1.6,3.64-2.48c1.093-0.88,1.8-1.64,2.12-2.28h15.52
		V84.4H222.239z"/>
</g>
<g>
</g>
<g>
</g>
<g>
</g>
<g>
</g>
<g>
</g>
<g>
</g>
<g>
</g>
<g>
</g>
<g>
</g>
<g>
</g>
<g>
</g>
<g>
</g>
<g>
</g>
<g>
</g>
<g>
</g>
</svg>
